<svg width="100%" height="100%" style="overflow:visible;" preserveAspectRatio="none" viewBox="24 20 456.57 122.36" fill="none" xmlns="http://www.w3.org/2000/svg"><g filter="url(#filter0_bd_349_222)"><mask id="path-1-inside-1_349_222" fill="white"><path d="M24.2168 55.3194C24.2168 35.9894 39.8868 20.3193 59.2168 20.3193H445.786C465.116 20.3193 480.786 35.9894 480.786 55.3193V107.675C480.786 127.005 465.116 142.675 445.786 142.675H59.2168C39.8868 142.675 24.2168 127.005 24.2168 107.675V55.3194Z"/></mask><path d="M24.2168 55.3194C24.2168 35.9894 39.8868 20.3193 59.2168 20.3193H445.786C465.116 20.3193 480.786 35.9894 480.786 55.3193V107.675C480.786 127.005 465.116 142.675 445.786 142.675H59.2168C39.8868 142.675 24.2168 127.005 24.2168 107.675V55.3194Z" stroke="url(#paint0_linear_349_222)" stroke-width="4" shape-rendering="crispEdges" mask="url(#path-1-inside-1_349_222)"/></g><defs><filter id="filter0_bd_349_222" x="0.216797" y="0.319336" width="504.569" height="170.356" filterUnits="userSpaceOnUse" color-interpolation-filters="sRGB"><feFlood flood-opacity="0" result="BackgroundImageFix"/><feGaussianBlur in="BackgroundImageFix" stdDeviation="10"/><feComposite in2="SourceAlpha" operator="in" result="effect1_backgroundBlur_349_222"/><feColorMatrix in="SourceAlpha" type="matrix" values="0 0 0 0 0 0 0 0 0 0 0 0 0 0 0 0 0 0 127 0" result="hardAlpha"/><feOffset dy="4"/><feGaussianBlur stdDeviation="12"/><feComposite in2="hardAlpha" operator="out"/><feColorMatrix type="matrix" values="0 0 0 0 0 0 0 0 0 0 0 0 0 0 0 0 0 0 0.2 0"/><feBlend mode="normal" in2="effect1_backgroundBlur_349_222" result="effect2_dropShadow_349_222"/><feBlend mode="normal" in="SourceGraphic" in2="effect2_dropShadow_349_222" result="shape"/></filter><linearGradient id="paint0_linear_349_222" x1="80.2168" y1="10.3193" x2="225.196" y2="238.888" gradientUnits="userSpaceOnUse"><stop stop-color="#5FFF8E"/><stop offset="0.352926" stop-color="#CDF2FE" stop-opacity="0"/><stop offset="0.697065" stop-color="#88E1FC" stop-opacity="0"/><stop offset="1" stop-color="#07C5FF" stop-opacity="0.49"/></linearGradient></defs></svg>