<svg width="100%" height="100%" style="overflow:visible;" preserveAspectRatio="none" viewBox="24 20 456.57 122.36" fill="none" xmlns="http://www.w3.org/2000/svg"><g filter="url(#filter0_bd_349_216)"><mask id="path-1-inside-1_349_216" fill="white"><path d="M24 55.3194C24 35.9894 39.67 20.3193 59 20.3193H445.569C464.899 20.3193 480.569 35.9894 480.569 55.3193V107.675C480.569 127.005 464.899 142.675 445.569 142.675H59C39.67 142.675 24 127.005 24 107.675V55.3194Z"/></mask><path d="M24 55.3194C24 35.9894 39.67 20.3193 59 20.3193H445.569C464.899 20.3193 480.569 35.9894 480.569 55.3193V107.675C480.569 127.005 464.899 142.675 445.569 142.675H59C39.67 142.675 24 127.005 24 107.675V55.3194Z" stroke="url(#paint0_linear_349_216)" stroke-width="4" shape-rendering="crispEdges" mask="url(#path-1-inside-1_349_216)"/></g><defs><filter id="filter0_bd_349_216" x="0" y="0.319336" width="504.569" height="170.356" filterUnits="userSpaceOnUse" color-interpolation-filters="sRGB"><feFlood flood-opacity="0" result="BackgroundImageFix"/><feGaussianBlur in="BackgroundImageFix" stdDeviation="10"/><feComposite in2="SourceAlpha" operator="in" result="effect1_backgroundBlur_349_216"/><feColorMatrix in="SourceAlpha" type="matrix" values="0 0 0 0 0 0 0 0 0 0 0 0 0 0 0 0 0 0 127 0" result="hardAlpha"/><feOffset dy="4"/><feGaussianBlur stdDeviation="12"/><feComposite in2="hardAlpha" operator="out"/><feColorMatrix type="matrix" values="0 0 0 0 0 0 0 0 0 0 0 0 0 0 0 0 0 0 0.2 0"/><feBlend mode="normal" in2="effect1_backgroundBlur_349_216" result="effect2_dropShadow_349_216"/><feBlend mode="normal" in="SourceGraphic" in2="effect2_dropShadow_349_216" result="shape"/></filter><linearGradient id="paint0_linear_349_216" x1="80" y1="10.3193" x2="224.979" y2="238.888" gradientUnits="userSpaceOnUse"><stop stop-color="#5FFF8E"/><stop offset="0.352926" stop-color="#CDF2FE" stop-opacity="0"/><stop offset="0.697065" stop-color="#88E1FC" stop-opacity="0"/><stop offset="1" stop-color="#07C5FF" stop-opacity="0.49"/></linearGradient></defs></svg>