<svg width="725" height="857" viewBox="0 0 725 857" fill="none" xmlns="http://www.w3.org/2000/svg">
<path fill-rule="evenodd" clip-rule="evenodd" d="M296.999 121.412C127.055 121.412 -10.7132 259.181 -10.7132 429.125C-10.7132 599.069 127.055 736.837 296.999 736.837C466.943 736.837 604.712 599.069 604.712 429.125C604.712 259.178 466.943 121.412 296.999 121.412ZM-122.609 429.125C-122.609 197.381 65.2554 9.51685 296.999 9.51685C528.743 9.51685 716.607 197.381 716.607 429.125C716.607 660.868 528.743 848.732 296.999 848.732C65.2554 848.732 -122.609 660.868 -122.609 429.125Z" fill="#306B56"/>
<path fill-rule="evenodd" clip-rule="evenodd" d="M297.001 317.229C235.204 317.229 185.105 367.324 185.105 429.124C185.105 490.921 235.204 541.02 297.001 541.02C358.798 541.02 408.896 490.921 408.896 429.124C408.896 367.324 358.798 317.229 297.001 317.229ZM73.21 429.124C73.21 305.527 173.404 205.333 297.001 205.333C420.598 205.333 520.792 305.527 520.792 429.124C520.792 552.721 420.598 652.915 297.001 652.915C173.404 652.915 73.21 552.721 73.21 429.124Z" fill="#306B56"/>
</svg>
